<svg width="100" height="100" viewBox="0 0 100 100" xmlns="http://www.w3.org/2000/svg">
  <!-- Background circle with Memphis style pattern -->
  <circle cx="50" cy="50" r="48" fill="#FF6B6B" stroke="#000" stroke-width="2"/>

  <!-- Memphis style geometric elements -->
  <rect x="15" y="60" width="25" height="6" fill="#4ECDC4" transform="rotate(-15, 15, 60)"/>
  <rect x="55" y="22" width="25" height="6" fill="#4ECDC4" transform="rotate(12, 55, 22)"/>
  <circle cx="30" cy="30" r="8" fill="#FFE66D" stroke="#000" stroke-width="1.5"/>
  <polygon points="70,65 78,80 62,80" fill="#1A535C" stroke="#000" stroke-width="1.5"/>

  <!-- OL for Obviously Limited -->
  <path d="M33,50 C33,41 38,36 45,36 C52,36 57,41 57,50 C57,59 52,64 45,64 C38,64 33,59 33,50Z" fill="white" stroke="#000" stroke-width="2.5"/>
  <path d="M63,36 L63,64 L78,64" fill="none" stroke="white" stroke-width="2.5" stroke-linecap="round" stroke-linejoin="round"/>

  <!-- Favicon Icon -->
  <svg width="32" height="32" viewBox="0 0 32 32" fill="none" xmlns="http://www.w3.org/2000/svg">
    <rect width="32" height="32" fill="#FF6B6B"/>

    <!-- Background Decoration -->
    <rect x="20" y="5" width="7" height="7" fill="#4ECDC4" rx="3.5" stroke="#333333" stroke-width="1"/>
    <rect x="20" y="18" width="7" height="7" fill="#FFE66D" transform="rotate(45 20 18)" stroke="#333333" stroke-width="1"/>

    <!-- Text -->
    <text font-family="'VT323', monospace" font-size="7" fill="#F7FFF7" letter-spacing="0.5" x="3" y="12">OBV</text>
    <text font-family="'VT323', monospace" font-size="7" fill="#1A535C" letter-spacing="0.5" x="3" y="22">LTD</text>
  </svg>
</svg>
